<?xml version="1.0" standalone="no"?>
<!DOCTYPE svg PUBLIC "-//W3C//DTD SVG 20010904//EN"
 "http://www.w3.org/TR/2001/REC-SVG-20010904/DTD/svg10.dtd">
<svg version="1.0" xmlns="http://www.w3.org/2000/svg"
 width="536.000000pt" height="354.000000pt" viewBox="0 0 536.000000 354.000000"
 preserveAspectRatio="xMidYMid meet">

<g transform="translate(0.000000,354.000000) scale(0.100000,-0.100000)"
fill="#000000" stroke="none">
<path d="M4720 3530 c0 -5 7 -7 15 -4 8 4 15 8 15 10 0 2 -7 4 -15 4 -8 0 -15
-4 -15 -10z"/>
<path d="M5180 3531 c0 -15 16 -22 34 -15 25 9 19 24 -9 24 -14 0 -25 -4 -25
-9z"/>
<path d="M4810 3510 c-8 -5 -12 -11 -9 -14 3 -3 14 1 25 9 21 16 8 20 -16 5z"/>
<path d="M4995 3510 c4 -6 11 -8 16 -5 14 9 11 15 -7 15 -8 0 -12 -5 -9 -10z"/>
<path d="M4830 3450 c0 -5 5 -10 11 -10 15 0 6 -90 -10 -100 -8 -4 -9 -10 -3
-14 5 -3 15 1 22 9 7 8 30 18 51 21 36 6 97 44 71 44 -21 0 -27 3 -38 18 -8
12 -15 12 -32 3 -20 -11 -22 -9 -22 14 0 20 -5 25 -25 25 -14 0 -25 -4 -25
-10z m55 -70 c-3 -5 -12 -10 -18 -10 -7 0 -6 4 3 10 19 12 23 12 15 0z"/>
<path d="M4801 3344 c0 -11 3 -14 6 -6 3 7 2 16 -1 19 -3 4 -6 -2 -5 -13z"/>
<path d="M5290 3190 c-36 -10 -82 -19 -102 -19 -21 -1 -38 -5 -38 -11 0 -5 -7
-10 -16 -10 -8 0 -12 -4 -9 -10 9 -14 -8 -13 -23 2 -15 15 -192 15 -218 0 -18
-11 -18 -12 4 -18 16 -5 22 -14 22 -35 0 -26 -4 -29 -30 -29 l-30 0 0 -80 0
-80 30 0 30 0 0 -88 c0 -77 3 -91 21 -108 17 -15 22 -16 29 -4 8 13 13 11 32
-9 16 -16 19 -25 11 -28 -16 -6 -18 -163 -3 -163 6 0 10 -18 10 -40 0 -29 4
-40 15 -40 8 0 15 -6 15 -13 0 -7 9 -18 20 -25 12 -7 25 -24 30 -37 5 -14 21
-30 35 -35 13 -5 30 -18 37 -30 9 -14 23 -20 49 -20 45 0 69 -25 69 -73 0 -36
1 -37 40 -37 l40 0 0 530 c0 292 -1 530 -2 529 -2 -1 -32 -9 -68 -19z"/>
<path d="M3673 1820 c-29 -36 -29 -40 5 -41 l27 -1 -27 -11 c-46 -18 -31 -33
35 -36 56 -2 62 -15 20 -43 -21 -14 -53 -33 -71 -42 -29 -15 -33 -21 -27 -43
4 -18 2 -24 -7 -20 -7 2 -12 10 -10 16 1 6 -5 11 -13 11 -9 0 -15 -9 -15 -25
0 -22 4 -25 35 -25 23 0 34 -4 33 -12 -4 -17 -19 -28 -42 -28 -15 0 -16 3 -6
15 8 9 8 15 2 15 -6 0 -18 3 -28 7 -12 4 -15 3 -10 -5 4 -7 3 -12 -3 -12 -5 0
-13 5 -16 10 -13 21 -24 9 -19 -20 4 -19 1 -38 -10 -55 -9 -13 -16 -33 -16
-44 0 -11 -4 -22 -9 -26 -5 -3 -12 -19 -16 -36 -6 -27 -76 -125 -110 -154 -14
-12 -45 -88 -45 -110 0 -8 5 -15 12 -15 6 0 8 3 5 6 -11 11 13 44 31 44 10 0
38 18 62 40 46 42 71 36 29 -6 -13 -13 -33 -33 -44 -45 -11 -11 -44 -34 -73
-51 -47 -27 -53 -34 -49 -56 6 -29 -22 -91 -41 -92 -7 0 -12 -6 -10 -12 4 -23
-13 -107 -23 -113 -5 -4 -9 -2 -9 3 0 5 -22 4 -50 -2 -62 -12 -66 -29 -5 -24
47 3 54 -2 32 -24 -7 -7 -16 -21 -20 -30 -8 -21 -25 -19 -248 33 -375 86 -507
107 -884 139 -285 24 -301 27 -455 85 -397 148 -558 198 -781 246 -169 36
-608 105 -726 115 l-83 7 0 -677 0 -676 2680 0 2680 0 0 269 0 269 -31 13
c-36 15 -122 76 -159 113 -24 25 -80 69 -225 180 -38 29 -140 89 -225 134
-236 122 -244 127 -315 183 -43 34 -70 48 -76 42 -6 -6 -25 -6 -52 1 -67 17
-127 98 -127 170 0 46 -128 227 -215 305 -16 14 -44 41 -62 59 -18 17 -35 32
-39 32 -3 0 -15 11 -26 25 -23 29 -69 55 -95 54 -10 0 -28 -13 -40 -29z m24
-226 c-3 -3 -12 -4 -19 -1 -8 3 -5 6 6 6 11 1 17 -2 13 -5z m-7 -58 c0 -3 -4
-8 -10 -11 -5 -3 -10 -1 -10 4 0 6 5 11 10 11 6 0 10 -2 10 -4z m-133 -68 c-3
-8 -6 -5 -6 6 -1 11 2 17 5 13 3 -3 4 -12 1 -19z"/>
</g>
</svg>
